# xmcd
#
# Track frame offsets: 
#        150
#        18143
#        33157
#        46156
#        63712
#        80970
#        94627
#        108635
#        124523
#        143619
#        158331
#        175655
#        191599
#        208761
#        222863
#
# Disc length: 3186 seconds
#
# Revision: 2
# Processed by: cddbd v1.5.2PL0 Copyright (c) Steve Scherf et al.
# Submitted via: ExactAudioCopyFreeDBPlugin 1.0
#
DISCID=c30c700f
DTITLE=Various Artist - Just Dance
DYEAR=2010
DGENRE=Thai
TTITLE0=ไอซ์ ศรัณญู - หอม
TTITLE1=ชิน ชินวุฒ - คืนนี้อยากได้กี่ครั้ง
TTITLE2=น้ำชา ชีรณัฐ - ลมเพลมพัด
TTITLE3=ริท The Star - ชอบก็จีบ
TTITLE4=The Bottom Blues - ฮูวี๊ฮู
TTITLE5=ZAZA - หวานใจ
TTITLE6=Pancake - รบกวนมารักกัน
TTITLE7=อ๊อฟ ปองศักดิ์ - My Color Day
TTITLE8=B.O.Y - โทษฐานทำน่ารักใส่
TTITLE9=จียอน - สอนภาษารัก
TTITLE10=อะตอม - แฟนขี้บ่น
TTITLE11=ส้ม - Wink
TTITLE12=Vietrio, พีท The Star - First Kiss
TTITLE13=แกรนด์ The Star - ตุ๊กตาบลายท์
TTITLE14=บี้ สุกฤษฎิ์ - It's Alright
EXTD=
EXTT0=
EXTT1=
EXTT2=
EXTT3=
EXTT4=
EXTT5=
EXTT6=
EXTT7=
EXTT8=
EXTT9=
EXTT10=
EXTT11=
EXTT12=
EXTT13=
EXTT14=
PLAYORDER=
